<svg width="40" height="31" viewBox="0 0 40 31" fill="none" xmlns="http://www.w3.org/2000/svg">
<path d="M5.71875 30.125C4.08333 30.125 2.85417 29.7188 2.03125 28.9062C1.21875 28.1042 0.8125 26.8958 0.8125 25.2812V8.92188C0.8125 7.31771 1.21875 6.11458 2.03125 5.3125C2.85417 4.5 4.08333 4.09375 5.71875 4.09375H10.0781C10.6927 4.09375 11.1458 4.02083 11.4375 3.875C11.7292 3.71875 12.0469 3.44792 12.3906 3.0625L13.6406 1.65625C14.0365 1.22917 14.4635 0.901042 14.9219 0.671875C15.3906 0.442708 16.026 0.328125 16.8281 0.328125H23.0625C23.8646 0.328125 24.5 0.442708 24.9688 0.671875C25.4375 0.901042 25.8646 1.22917 26.25 1.65625L27.5 3.0625C27.7396 3.32292 27.9531 3.53125 28.1406 3.6875C28.3385 3.83333 28.5625 3.9375 28.8125 4C29.0625 4.0625 29.3958 4.09375 29.8125 4.09375H34.2812C35.9062 4.09375 37.1302 4.5 37.9531 5.3125C38.776 6.11458 39.1875 7.31771 39.1875 8.92188V25.2812C39.1875 26.8958 38.776 28.1042 37.9531 28.9062C37.1302 29.7188 35.9062 30.125 34.2812 30.125H5.71875ZM5.75 27.6094H34.2344C35.0052 27.6094 35.6042 27.4062 36.0312 27C36.4583 26.5833 36.6719 25.9688 36.6719 25.1562V9.0625C36.6719 8.25 36.4583 7.64062 36.0312 7.23438C35.6042 6.81771 35.0052 6.60938 34.2344 6.60938H29.1875C28.4792 6.60938 27.9062 6.53125 27.4688 6.375C27.0417 6.20833 26.6302 5.90625 26.2344 5.46875L25.0156 4.09375C24.5677 3.59375 24.1719 3.26042 23.8281 3.09375C23.4844 2.92708 22.9688 2.84375 22.2812 2.84375H17.6094C16.9219 2.84375 16.4062 2.92708 16.0625 3.09375C15.7188 3.26042 15.3229 3.59375 14.875 4.09375L13.6562 5.46875C13.2604 5.90625 12.8438 6.20833 12.4062 6.375C11.9792 6.53125 11.4115 6.60938 10.7031 6.60938H5.75C4.97917 6.60938 4.38021 6.81771 3.95312 7.23438C3.53646 7.64062 3.32812 8.25 3.32812 9.0625V25.1562C3.32812 25.9688 3.53646 26.5833 3.95312 27C4.38021 27.4062 4.97917 27.6094 5.75 27.6094ZM20 25.3594C18.8125 25.3594 17.7031 25.1406 16.6719 24.7031C15.6406 24.2656 14.7344 23.6562 13.9531 22.875C13.1823 22.0938 12.5729 21.1875 12.125 20.1562C11.6875 19.125 11.4688 18.0104 11.4688 16.8125C11.4688 15.625 11.6875 14.5156 12.125 13.4844C12.5729 12.4531 13.1823 11.5469 13.9531 10.7656C14.7344 9.98438 15.6406 9.375 16.6719 8.9375C17.7031 8.5 18.8125 8.28125 20 8.28125C21.5729 8.28125 23.0052 8.66146 24.2969 9.42188C25.5885 10.1823 26.6146 11.2083 27.375 12.5C28.1354 13.7917 28.5156 15.2292 28.5156 16.8125C28.5156 18.0104 28.2969 19.125 27.8594 20.1562C27.4219 21.1875 26.8125 22.0938 26.0312 22.875C25.25 23.6562 24.3438 24.2656 23.3125 24.7031C22.2812 25.1406 21.1771 25.3594 20 25.3594ZM20 22.9844C21.1354 22.9844 22.1667 22.7083 23.0938 22.1562C24.0312 21.6042 24.776 20.8646 25.3281 19.9375C25.8802 19 26.1562 17.9583 26.1562 16.8125C26.1562 15.6771 25.8802 14.6458 25.3281 13.7188C24.776 12.7812 24.0312 12.0365 23.0938 11.4844C22.1667 10.9219 21.1354 10.6406 20 10.6406C18.8646 10.6406 17.8281 10.9219 16.8906 11.4844C15.9635 12.0365 15.2188 12.7812 14.6562 13.7188C14.1042 14.6458 13.8281 15.6771 13.8281 16.8125C13.8281 17.9583 14.1042 19 14.6562 19.9375C15.2188 20.8646 15.9635 21.6042 16.8906 22.1562C17.8281 22.7083 18.8646 22.9844 20 22.9844ZM29.1562 11.0625C29.1562 10.5417 29.349 10.0885 29.7344 9.70312C30.1198 9.31771 30.5833 9.125 31.125 9.125C31.6458 9.125 32.099 9.31771 32.4844 9.70312C32.8698 10.0885 33.0625 10.5417 33.0625 11.0625C33.0625 11.6042 32.8698 12.0625 32.4844 12.4375C32.099 12.8125 31.6458 13 31.125 13C30.5833 13 30.1198 12.8177 29.7344 12.4531C29.349 12.0781 29.1562 11.6146 29.1562 11.0625Z" fill="black"/>
</svg>
