<svg width="27" height="21" viewBox="0 0 27 21" fill="none" xmlns="http://www.w3.org/2000/svg">
<path fill-rule="evenodd" clip-rule="evenodd" d="M0 1.75C0 0.783502 0.783502 0 1.75 0H25.25C26.2165 0 27 0.783502 27 1.75C27 2.7165 26.2165 3.5 25.25 3.5H1.75C0.783502 3.5 0 2.7165 0 1.75ZM0 10.5C0 9.5335 0.783502 8.75 1.75 8.75H25.25C26.2165 8.75 27 9.5335 27 10.5C27 11.4665 26.2165 12.25 25.25 12.25H1.75C0.783502 12.25 0 11.4665 0 10.5ZM1.75 17.5C0.783502 17.5 0 18.2835 0 19.25C0 20.2165 0.783502 21 1.75 21H25.25C26.2165 21 27 20.2165 27 19.25C27 18.2835 26.2165 17.5 25.25 17.5H1.75Z" fill="black"/>
</svg>
