<svg width="200" height="40" viewBox="0 0 200 40" fill="none" xmlns="http://www.w3.org/2000/svg">
<path d="M15 35V30H10V25H5V20H0V0H10V15H15V20H20V15H25V0H35V20H30V25H25V30H20V35H15ZM55 15H60V20H55V35H45V10H55V15ZM75 10V15H60V10H75ZM85 35V30H80V15H85V10H110V15H115V30H110V35H85ZM90 30H105V15H90V30ZM125 35V30H120V15H125V10H150V15H155V30H150V35H125ZM130 30H145V15H130V30ZM160 35V10H190V15H195V35H185V15H180V35H170V15H165V35H160Z" fill="#82C96D"/>
<path d="M71.2236 8.46835C71.2236 12.0771 71.2236 15.6859 71.2236 19.2947C71.2236 19.377 71.2338 19.1304 71.2444 19.0488C71.3343 18.3597 71.385 17.667 71.5149 16.9834C72.0184 14.3341 72.7198 11.7222 73.202 9.06981C73.3333 8.34772 73.4366 7.621 73.4366 6.88714C73.4366 6.87053 73.4366 6.67284 73.4366 6.74906C73.4366 7.17652 73.4366 7.60398 73.4366 8.03143C73.4366 9.83646 73.4366 11.6415 73.4366 13.4465C73.4366 13.886 73.4366 14.3254 73.4366 14.7648C73.4366 14.7842 73.4428 15.1768 73.4177 15.1696C73.3044 15.1372 73.1347 14.5769 73.0961 14.483C72.8427 13.8668 72.6278 13.2164 72.4568 12.5727C72.2759 11.8914 72.1671 11.2044 72.0332 10.5148C71.9992 10.3402 71.948 10.1786 71.9386 10.0004C71.8761 8.81291 71.9045 12.3785 71.9045 13.5676C71.9045 14.5131 71.8143 11.6781 71.7324 10.7361C71.7262 10.6652 71.7129 10.6407 71.7419 10.7229C71.8527 11.0368 71.9777 11.3477 72.0672 11.6686C72.3301 12.6117 72.3854 13.5645 72.5344 14.5246C72.5602 14.6911 72.6137 14.8629 72.6195 15.0315C72.6265 15.2363 72.6506 14.8884 72.6535 14.8575C72.7947 13.3679 73.0044 11.9051 73.2512 10.4278C73.4512 9.23056 73.6785 8.04216 73.8035 6.83418C73.8304 6.57438 73.9132 6.3008 73.9132 6.03979C73.9132 5.88091 73.9132 6.35754 73.9132 6.51642C73.9132 7.81264 73.917 9.10893 73.9132 10.4051C73.9117 10.9102 73.8747 11.4075 73.8451 11.9107C73.8322 12.131 73.8382 12.3699 73.777 12.584C73.7337 12.7358 73.6265 12.2595 73.6238 12.2493C73.5196 11.8544 73.4222 11.4575 73.3307 11.0596C73.2478 10.6994 73.1228 10.3557 73.028 10.0004C72.9977 9.88646 72.9766 9.61341 72.8843 9.53132C72.8655 9.51463 72.8411 9.82096 72.8408 9.82448C72.8154 10.1541 72.8238 10.4853 72.8238 10.8156C72.8238 10.9385 72.8238 11.0615 72.8238 11.1844C72.8238 11.2666 72.8343 11.295 72.8162 11.1844C72.7795 10.9607 72.7084 10.7492 72.68 10.5224C72.6633 10.389 72.6411 10.2287 72.593 10.1025C72.4956 9.84686 72.6042 10.6542 72.6706 10.9196C72.6923 11.0065 72.8387 11.5813 72.9675 11.5665C73.1304 11.5477 73.2704 11.0833 73.3288 10.9631C73.4574 10.6983 73.5608 10.417 73.707 10.1612C73.7208 10.137 73.8384 9.90203 73.8621 9.90203C73.9004 9.90203 73.8792 10.5263 73.8792 10.5848C73.8792 11.4751 73.743 12.3584 73.743 13.2498C73.743 13.4018 73.743 13.5537 73.743 13.7056C73.743 13.9279 73.7937 13.5298 73.7978 13.5033C73.9273 12.6765 74.1172 11.8593 74.2272 11.0293C74.2384 10.9443 74.2877 10.8587 74.2877 10.774C74.2877 10.5587 74.3152 11.2037 74.3199 11.4189C74.3295 11.8639 74.3088 12.3096 74.3293 12.7543C74.3407 13.0001 74.3826 13.2472 74.3898 13.4919C74.4106 14.1984 74.3898 12.0784 74.3898 11.3716C74.3898 10.7821 74.3506 10.1804 74.3898 9.59184C74.3984 9.46277 74.4381 9.84607 74.4579 9.9739C74.5195 10.3704 74.5896 10.7576 74.6282 11.1579C74.6669 11.5599 74.7303 11.9429 74.7303 12.3476C74.7303 12.4203 74.7627 12.4273 74.7643 12.3495C74.7714 12.0157 74.7643 11.681 74.7643 11.3471C74.7643 10.9637 74.7643 9.81376 74.7643 10.1971C74.7643 10.886 74.778 11.5761 74.7473 12.2644C74.7262 12.7377 74.7303 13.2112 74.7303 13.6848C74.7303 13.862 74.7119 14.0505 74.7379 14.2258C74.845 14.9493 74.7643 12.7631 74.7643 12.0317C74.7643 11.3912 74.7643 10.7506 74.7643 10.1101C74.7643 9.9662 74.7939 10.2298 74.7984 10.2538C74.8772 10.6783 74.9632 11.1226 74.9686 11.5551C74.9777 12.2894 74.9686 13.0242 74.9686 13.7586C74.9686 13.9586 74.9686 13.85 74.9686 13.7075C74.9686 13.1654 74.9264 12.6357 74.874 12.0961C74.8193 11.532 74.8176 10.9123 74.6944 10.3579C74.6929 10.3515 74.6322 10.8392 74.6282 10.9366C74.6036 11.5329 74.5483 12.1272 74.526 12.724C74.4985 13.461 74.5254 14.201 74.492 14.9369C74.4883 15.0178 74.4098 14.8907 74.3993 14.8764C74.2658 14.6958 74.152 14.5085 74.0494 14.309C73.9993 14.2115 73.9262 14.128 73.8867 14.0253C73.8403 13.9045 73.845 14.2542 73.8451 14.2674C73.849 14.7316 74.003 15.18 74.0153 15.6368C74.0192 15.7813 73.9594 15.5168 73.9473 15.4854C73.8907 15.34 73.8368 15.1919 73.8111 15.0372C73.7739 14.8142 73.6352 14.4794 73.9586 14.7705C74.2899 15.0686 74.6917 15.3585 74.98 15.6992C74.9897 15.7107 75.0581 15.8129 75.0689 15.7484C75.1025 15.5462 75.0707 15.3149 75.0707 15.1109C75.0707 14.826 75.0707 13.9711 75.0707 14.256C75.0707 14.4075 75.1048 14.5507 75.1048 14.6986C75.1048 14.8204 74.9984 14.5914 74.9837 14.5624C74.914 14.4249 74.8515 14.2899 74.7643 14.1615C74.6336 13.9689 74.62 14.1644 74.5601 14.3241" stroke="white" stroke-linecap="round"/>
<path d="M66.8439 15.9579C66.8439 14.005 66.8439 12.0522 66.8439 10.0994C66.8439 9.89918 66.8439 9.69896 66.8439 9.49873C66.8439 9.39044 66.8145 8.8965 66.8463 9.26181C66.8757 9.59956 66.9492 9.93182 66.9731 10.2717C67.0388 11.2031 67.0558 12.1433 67.0928 13.0765C67.1403 14.2731 67.1901 15.4675 67.3273 16.6567C67.3606 16.9449 67.3667 17.2915 67.5523 17.5302C67.6263 17.6253 67.5762 17.3705 67.5762 17.3124C67.5762 16.6351 67.5762 15.9579 67.5762 15.2806C67.5762 14.3608 67.5734 13.441 67.5762 12.5213C67.5787 11.703 67.6566 10.8874 67.6624 10.0707C67.6642 9.81944 67.6353 9.55297 67.6648 9.30249C67.6842 9.13694 67.6847 9.09073 67.7509 9.26181C68.0997 10.1629 68.1841 11.2195 68.2224 12.1767C68.2569 13.0392 68.3584 10.4452 68.2631 9.58728C68.1031 8.14748 68.2655 12.4846 68.2655 13.9332C68.2655 14.6618 68.3504 12.4784 68.4186 11.7531C68.4573 11.3412 68.508 10.93 68.567 10.5206C68.6011 10.284 68.582 9.57643 68.6436 9.80745C68.6846 9.9612 68.6531 10.1894 68.6531 10.3411C68.6531 10.6873 68.6531 11.0335 68.6531 11.3797C68.6531 12.4765 68.6633 13.5737 68.6507 14.6703C68.6399 15.6173 68.5239 18.4557 68.5239 17.5086C68.5239 15.326 68.4808 8.77834 68.4808 10.9609C68.4808 12.316 68.5105 13.6325 68.1793 14.9575C68.0556 15.4523 67.8699 15.9287 67.7509 16.4245C67.7492 16.4315 67.6791 16.7914 67.6408 16.6614C67.5238 16.2634 67.614 15.7132 67.6193 15.3069C67.6356 14.0631 68.0711 12.8424 68.4952 11.6837C68.6597 11.2341 68.8111 10.7803 68.9714 10.3292C69.0228 10.1845 69.0996 9.75008 69.2371 9.65189C69.3281 9.58686 69.4223 10.0979 69.4285 10.1233C69.5695 10.6997 69.6057 11.2969 69.6774 11.8847C69.7567 12.5348 69.7301 13.1932 69.7301 13.8471C69.7301 13.9813 69.6281 13.8189 69.5984 13.7729C69.385 13.4421 69.2092 13.0577 69.06 12.6936C68.9031 12.3109 68.769 11.9184 68.7201 11.5066C68.7093 11.4149 68.6183 11.1233 68.6555 11.0303C68.6576 11.0253 68.889 11.5189 68.902 11.5545C69.127 12.1693 69.3048 12.8026 69.3759 13.4546C69.4468 14.1054 69.4716 14.7448 69.4716 15.3979C69.4716 15.5449 69.4831 15.1038 69.4979 14.9575C69.6175 13.775 69.8801 12.611 70.2183 11.4731C70.4146 10.8125 70.5891 10.1528 70.7639 9.48676C70.8413 9.19174 70.8881 8.84426 71.0224 8.56779C71.0769 8.45547 71.0654 8.62088 71.0654 8.65395C71.0654 9.11503 71.0654 9.57611 71.0654 10.0372C71.0654 10.8744 71.0605 11.7051 71.0032 12.5404C70.977 12.9221 70.9132 13.3033 70.8955 13.6844C70.8906 13.7904 70.9174 13.9232 70.8596 14.0194C70.8416 14.0494 70.8222 13.9582 70.8166 13.9237C70.7798 13.6997 70.7338 13.4775 70.6969 13.2536C70.5354 12.2744 70.573 11.2632 70.3954 10.2861C70.3574 10.0773 70.3816 10.1274 70.3738 10.31C70.3477 10.9246 70.3182 11.5396 70.2685 12.1527C70.2066 12.9167 70.2433 13.7667 70.0771 14.5148C70.061 14.5871 69.9707 14.1154 69.9646 14.0625C69.8878 13.3969 69.9024 12.7206 69.9024 12.0522C69.9024 11.5766 69.8593 10.1502 69.8593 10.6259C69.8593 11.5172 70.1877 14.1747 70.0651 13.2919C69.966 12.578 69.8148 11.8853 69.7516 11.1644C69.7387 11.0169 69.7301 10.8741 69.7301 10.7264C69.7301 10.673 69.8159 11.0148 69.8401 11.0806C70.2487 12.1896 70.407 13.3536 70.5916 14.5124C70.6338 14.7771 70.6685 15.0347 70.6777 15.3021C70.6842 15.4891 70.7208 15.1254 70.7208 15.0915C70.7208 12.956 70.7208 10.8205 70.7208 8.68506C70.7208 8.10512 70.7208 7.52518 70.7208 6.94523C70.7208 6.64773 70.7262 7.22295 70.7304 7.28506C70.81 8.46936 70.8501 9.65925 70.8501 10.8461C70.8501 11.2186 70.8501 11.5911 70.8501 11.9637C70.8501 12.004 70.8724 12.3161 70.8046 12.2652C70.6681 12.1628 70.5515 11.8541 70.4863 11.7028C70.3369 11.3562 70.2122 10.9894 70.0938 10.6307C70.0296 10.4362 69.9787 10.2395 69.9119 10.0468C69.8711 9.92874 69.86 10.2124 69.8593 10.2574C69.8474 11.0446 69.8162 11.8355 69.8162 12.6218C69.8162 12.8771 69.8162 13.1323 69.8162 13.3876C69.8162 13.5097 69.8182 13.4821 69.7923 13.3637C69.6372 12.6545 69.5935 11.8961 69.5482 11.1715C69.5337 10.9392 69.5147 10.708 69.5147 10.4751C69.5147 10.2757 69.5089 10.8742 69.5171 11.0734C69.557 12.0509 69.7731 13.003 69.7731 13.9859C69.7731 14.3061 69.8741 14.6786 69.9431 14.9886C69.9874 15.1882 70.0947 15.3287 70.1608 15.5271" stroke="white" stroke-linecap="round"/>
<path d="M63.8284 16.9478C63.8284 14.573 63.8284 12.1982 63.8284 9.82341C63.8284 9.67688 63.7429 9.32324 63.9361 9.32324C64.1156 9.32324 64.2951 9.32324 64.4746 9.32324C64.6993 9.32324 64.69 9.39295 64.69 9.60085C64.69 10.0109 64.69 10.4209 64.69 10.8309C64.69 11.2405 64.7008 11.6185 64.6038 12.0179C64.5405 12.2786 64.4746 12.6272 64.4746 12.8986C64.4746 13.5559 64.4746 14.2133 64.4746 14.8706C64.4746 15.0985 64.467 15.123 64.5416 14.8993C64.7102 14.3933 64.7481 13.8383 64.8527 13.315C64.9129 13.014 64.8743 12.7199 64.9149 12.4152C64.9468 12.1759 64.8992 11.9034 64.9508 11.6709C65.0725 11.1234 65.1854 10.5294 65.3385 9.99333C65.3624 9.9098 65.379 10.1434 65.3792 10.1513C65.3859 10.4513 65.4916 10.7554 65.53 11.0535C65.6487 11.9771 65.882 12.9478 65.8961 13.8798C65.8999 14.127 65.8961 14.3745 65.8961 14.6217C65.8961 15.0295 65.8961 14.5351 65.8961 14.3776C65.8961 13.2703 65.9392 9.94856 65.9392 11.0559C65.9392 11.4086 66.0503 14.9984 65.853 15.0094C65.6433 15.021 65.456 14.8916 65.25 14.8801C65.1053 14.8721 65.1638 14.6291 65.1638 14.5116C65.1638 14.2058 65.1533 13.9007 65.1973 13.5974C65.2764 13.0524 65.4653 12.474 65.4653 11.9294C65.4653 11.7918 65.596 11.5174 65.6592 11.3909C65.7092 11.291 65.7969 11.1575 65.81 11.0463C65.8161 10.9944 65.8948 10.9941 65.9296 10.9506C66.0507 10.7993 66.1603 10.4439 66.1953 10.2518C66.2254 10.0859 66.0153 10.2329 65.9392 10.2709" stroke="white" stroke-linecap="round"/>
<path d="M65.207 11.8225C63.3922 11.8225 61.5774 11.8225 59.7626 11.8225C59.591 11.8225 59.448 11.8656 59.2863 11.8656C59.1603 11.8656 58.7273 12.0005 58.6258 11.8991C58.5642 11.8374 58.6163 11.4697 58.6163 11.3893C58.6163 10.8965 58.6593 10.4003 58.6593 9.91274C58.6593 9.73915 58.9307 9.92803 59.004 9.9606C59.1697 10.0343 59.0937 10.0789 59.1428 10.2382C59.2094 10.4548 59.2151 10.5964 59.4156 10.7408C59.5022 10.8031 60.1212 11.1471 60.2292 11.0854C60.3415 11.0212 60.2532 10.2542 60.2532 10.109C60.2532 9.86138 60.4792 10.3075 60.5212 10.4105C60.5549 10.4931 60.6205 10.5586 60.6744 10.6259C60.7271 10.6918 60.6232 10.7231 60.5786 10.6785C60.5341 10.634 60.5022 10.5367 60.5882 10.6259C60.7496 10.7932 60.8618 11.0464 60.9879 11.2433C61.0377 11.3212 61.3688 11.8663 61.3732 11.631C61.3789 11.3215 61.3013 10.4039 61.3827 10.7025C61.4337 10.8894 61.6639 11.4196 61.6292 11.229C61.5337 10.7033 61.3003 10.1989 61.2057 9.67821C61.1763 9.51674 61.3119 9.75145 61.3349 9.7859C61.5059 10.0424 61.6954 10.2994 61.8374 10.5732C61.8738 10.6435 62.0145 10.8159 62.0145 10.8939C62.0145 10.973 61.6815 10.8475 61.6508 10.8317C61.5756 10.7931 61.1049 10.4392 61.3349 10.468C61.5927 10.5002 61.771 10.7149 61.9475 10.8891C62.0266 10.9672 62.2484 11.1194 62.2754 11.2409C62.3075 11.3854 62.2527 11.193 62.2347 11.1428C62.1429 10.887 62.0713 10.5781 62.0624 10.3052C62.0616 10.2795 62.0051 9.95665 62.0504 9.98453C62.2592 10.113 62.4231 10.4062 62.5362 10.6163C62.5993 10.7333 62.6962 10.8241 62.7421 10.9514C62.7594 10.9995 62.6281 10.6649 62.6033 10.5948C62.5675 10.4941 62.3653 9.75618 62.6248 10.0156C62.735 10.1258 62.894 10.2283 62.9814 10.3555C62.9869 10.3635 63.0973 10.5151 63.0962 10.5015C63.0849 10.3534 63.034 10.1375 62.9862 9.99411C62.981 9.97868 62.8699 9.73086 62.8904 9.73086C63.0065 9.73086 63.2407 10.5956 63.2901 10.724C63.3709 10.934 63.2255 10.8327 63.2255 11.0471C63.2255 11.0983 63.2517 11.211 63.1824 11.217C63.0183 11.2313 62.7794 11.2365 62.6224 11.1668C62.4114 11.073 62.5925 11.1201 62.7086 11.004" stroke="white" stroke-linecap="round"/>
<path d="M55.6216 14.2109C55.6216 16.5389 55.5448 18.8801 55.6441 21.2055C55.6903 22.2865 56.0267 25.511 56.0267 24.429" stroke="white" stroke-linecap="round"/>
<path d="M56.2617 21.3538C56.2617 19.9869 56.2617 18.6201 56.2617 17.2533C56.2617 16.9259 56.2928 17.3235 56.3016 17.4379C56.3348 17.8696 56.3373 18.297 56.3373 18.7306C56.3373 19.0146 56.3373 18.1626 56.3373 17.8786C56.3373 16.4181 56.3373 14.9575 56.3373 13.4969C56.3373 13.1758 56.3501 13.5332 56.375 13.6522C56.4963 14.2301 56.4717 14.847 56.4884 15.4338C56.5137 16.3266 56.5639 17.2253 56.5639 18.1179C56.5639 18.1689 56.547 18.3185 56.566 18.271C56.7093 17.9129 56.6914 17.4157 56.7528 17.035C56.8467 16.452 56.9794 15.8496 56.9794 15.2576C56.9794 14.2692 56.9794 17.2344 56.9794 18.2228C56.9794 18.7943 56.9923 19.3652 56.95 19.9352C56.946 19.9898 56.9695 20.4574 56.9018 20.4913C56.8403 20.522 56.8706 20.3565 56.8682 20.2877C56.8557 19.9331 56.8661 19.5765 56.8661 19.2217C56.8661 18.0235 56.9445 16.8741 57.1473 15.6941C57.1965 15.4076 57.2111 15.1054 57.3005 14.8274C57.3419 14.6984 57.3656 14.8317 57.3739 14.8924C57.4084 15.1438 57.4122 15.4051 57.4243 15.6584C57.4735 16.6919 57.4327 17.7335 57.4327 18.7684C57.4327 18.8056 57.4327 19.0937 57.4327 18.9321C57.4327 17.9476 57.4458 16.9565 57.6132 15.9837C57.7605 15.1269 58.0056 14.2811 58.2343 13.4423C58.2851 13.2561 58.3244 13.0632 58.3854 12.8799C58.388 12.8721 58.4816 12.6811 58.4883 12.6911C58.5074 12.7197 58.4903 12.8635 58.4903 12.882C58.4903 13.1717 58.4795 13.4508 58.4106 13.734C58.0564 15.1893 57.5795 16.6098 57.2774 18.0801C57.065 19.1138 56.9416 20.1794 56.9416 21.2363C56.9416 21.3687 57.0211 20.9834 57.0508 20.8543C57.2301 20.075 57.4834 19.3117 57.7181 18.5481C58.1437 17.1634 58.5488 15.7709 59.0024 14.3951C59.3313 13.3974 59.6704 12.4045 59.9803 11.4005C60.0404 11.2058 60.085 11.0089 60.1314 10.8108C60.1472 10.7432 60.187 10.5605 60.2195 10.6219C60.2541 10.6872 60.2279 10.8434 60.2279 10.9073C60.2279 11.1689 60.2292 11.4306 60.2279 11.6922C60.2223 12.7965 60.0776 13.8531 59.8691 14.9344C59.7556 15.5229 59.6393 16.1118 59.5312 16.7014C59.4906 16.923 59.4347 17.1448 59.4347 17.3708C59.4347 17.8637 59.4752 16.3824 59.5648 15.8976C59.7314 14.9966 60.0095 14.1177 60.1943 13.2199C60.259 12.9058 60.4525 11.9634 60.379 12.2756C60.2252 12.9294 59.9108 13.5794 59.6655 14.202C59.2318 15.3029 58.9695 16.4284 58.7632 17.589C58.7254 17.8016 58.7605 17.5615 58.7799 17.4757C58.8461 17.1847 58.9851 16.9121 59.0947 16.6363C59.2497 16.2467 59.39 15.8517 59.548 15.4632C59.7386 14.9947 59.9295 14.5275 60.1104 14.0551C60.1202 14.0295 60.2216 13.6897 60.2111 13.8201C60.1884 14.1043 60.08 14.3933 59.9971 14.6637C59.7569 15.4467 59.4838 16.2204 59.2248 16.9972C58.8182 18.2172 58.4519 19.4495 58.1462 20.699C58.0771 20.9814 57.9742 21.2879 57.9615 21.5804C57.9613 21.5866 57.9601 21.6479 57.9615 21.614C57.9843 21.0684 58.079 20.5323 58.2175 20.0044C58.3982 19.3162 58.6544 18.6492 58.8975 17.9815C59.3124 16.8415 59.7163 15.6977 60.1104 14.5504C60.4473 13.5696 60.7387 12.563 61.124 11.5998C61.1899 11.435 61.224 11.2085 61.3213 11.0626C61.3337 11.044 61.3234 11.1074 61.3234 11.1298C61.3234 11.3898 61.3273 11.6506 61.315 11.9104C61.2863 12.5143 61.1516 13.0729 60.9792 13.6522C60.6854 14.6395 60.3675 15.6223 60.0202 16.5922C59.7598 17.3193 59.48 18.0392 59.2374 18.7726C59.1624 18.9992 59.1053 19.2313 59.0276 19.4567C58.9689 19.627 58.9753 19.476 58.9877 19.3686C59.0665 18.686 59.3623 18 59.59 17.3582C59.8765 16.5503 60.141 15.727 60.463 14.9323C60.5209 14.7894 60.5841 14.6499 60.635 14.5042C60.6355 14.503 60.7031 14.3222 60.7106 14.3321C60.7536 14.3895 60.7201 14.5951 60.719 14.6595C60.7136 14.967 60.627 15.2578 60.549 15.5535C60.2452 16.7043 59.9197 17.8451 59.6613 19.0076C59.6167 19.2082 59.8898 18.5359 59.8901 18.5355C60.9163 16.5426 61.9762 14.5621 62.9266 12.5316C63.3123 11.7077 63.6403 10.8577 64.0179 10.0301C64.0973 9.856 64.1742 9.65282 64.2823 9.49293C64.4097 9.30441 64.1502 9.93117 64.0451 10.133C63.6104 10.968 63.0922 11.7614 62.6412 12.5882C61.9265 13.8985 61.2545 15.2917 60.7358 16.6909C60.5504 17.1909 60.4002 17.693 60.2468 18.2018C60.1979 18.3641 60.1146 18.8624 60.1146 18.6928C60.1146 18.2843 60.1521 17.9009 60.2657 17.5051C60.6329 16.2253 61.1219 14.9785 61.5101 13.7047C61.6596 13.214 61.8101 12.722 61.9214 12.221C61.9292 12.1863 62.0125 11.9583 61.9109 12.0867C61.571 12.5166 61.3433 13.0849 61.0925 13.5683C60.4105 14.8829 59.7295 16.2018 59.1094 17.5471C58.839 18.1337 58.5785 18.7162 58.377 19.3308C58.373 19.343 58.3362 19.4902 58.356 19.4525C58.4873 19.2031 58.6009 18.9452 58.7359 18.697C59.302 17.6564 59.8304 16.5972 60.3895 15.5535C60.6325 15.0999 60.823 14.6186 61.0799 14.1726C61.2043 13.9567 61.21 13.9725 61.21 14.2272C61.21 14.5016 61.1949 14.7625 61.1387 15.033C60.9335 16.0198 60.649 17.0017 60.3454 17.9626C59.8421 19.5559 59.2159 21.1196 58.7569 22.7262C58.6269 23.1812 58.8682 21.7783 59.0276 21.3328C59.4327 20.2002 59.9439 19.1148 60.3937 18.0003C60.6486 17.3688 60.8777 16.7352 61.0715 16.0823C61.0912 16.0159 61.2854 15.4945 61.231 15.4401C61.1956 15.4047 61.1779 15.5254 61.1555 15.5702C61.0776 15.7259 61.0068 15.885 60.9372 16.0445C60.661 16.6782 60.3898 17.3131 60.1713 17.9689C60.0721 18.2662 59.9554 18.5577 59.8565 18.8544C59.847 18.8828 59.7774 19.1839 59.7746 19.1168C59.7549 18.6438 59.3054 19.5142 59.2836 19.5574C59.1561 19.8105 59.0133 20.0606 58.9352 20.3339C58.8987 20.4617 58.765 20.6241 58.8765 20.401C59.0083 20.1375 59.2037 19.9012 59.3696 19.6582C59.6206 19.2906 59.8551 18.9135 60.1062 18.546C60.8387 17.474 61.4797 16.3614 62.0599 15.2009C62.1939 14.933 62.2751 14.6642 62.4775 14.4433C62.5324 14.3835 62.6049 14.3307 62.6643 14.2713C62.7505 14.185 62.5258 14.6839 62.5027 14.735C62.3689 15.0322 62.2697 15.3444 62.1837 15.6584C62.1531 15.7702 62.0788 15.9245 62.0788 16.0424C62.0788 16.0426 62.1213 15.9027 62.1229 15.8976C62.1935 15.6771 62.2803 15.4661 62.381 15.2576C62.6178 14.7671 62.7926 14.2496 62.9854 13.7403C63.0448 13.5834 63.113 13.4282 63.1575 13.2661C63.1735 13.2077 63.1779 13.0998 63.2288 13.0562C63.2515 13.0368 63.2498 13.1958 63.2498 13.201C63.2498 13.3668 63.2517 13.5326 63.2498 13.6984C63.2467 13.9713 63.2165 14.2514 63.1743 14.521C63.1536 14.6529 63.1365 15.0532 63.1365 14.9197C63.1365 14.7938 63.1365 14.6679 63.1365 14.542C63.1365 14.309 63.1439 15.008 63.1344 15.2408C63.1269 15.4249 63.0714 15.599 63.0253 15.7759C63.0234 15.7831 62.9639 15.9894 62.9476 15.9732C62.8721 15.8977 62.8721 15.6117 62.8721 15.4989" stroke="white" stroke-linecap="round"/>
<path d="M54.0884 17.6176C53.8556 17.5303 54.2705 16.8226 54.3316 16.7317C54.6552 16.2497 54.9379 15.7633 55.3109 15.3115C55.6963 14.8447 56.1178 14.4529 56.5985 14.0825C57.5287 13.3658 58.508 12.6756 59.5343 12.1022C60.7877 11.4019 62.2007 10.9645 63.5732 10.5648C64.478 10.3013 65.4526 10.1029 66.3917 10.0132C66.9416 9.96076 67.5074 9.99588 68.0593 9.99588C68.7139 9.99588 69.3732 9.97139 70.0266 10.0176C71.9304 10.1522 73.6036 11.1072 74.895 12.493C75.2073 12.8281 75.5072 13.1706 75.8157 13.5071C75.9178 13.6185 75.9991 13.7595 76.1327 13.8263" stroke="#82C96D" stroke-linecap="round"/>
<path d="M75.9372 14.2178C75.4551 14.2178 74.9413 14.435 74.5041 14.6303C74.1995 14.7664 73.8628 14.8604 73.5443 14.9604C72.8265 15.1858 72.1422 15.4856 71.4423 15.7595C70.8062 16.0084 70.1861 16.2878 69.5445 16.5238C68.9395 16.7464 68.3177 16.9219 67.714 17.1492C66.5198 17.5988 65.3323 18.0425 64.1073 18.4043C62.9094 18.7581 61.6886 19.055 60.4593 19.275C59.2183 19.4971 57.9645 19.5334 56.707 19.5334C56.1598 19.5334 55.6126 19.5334 55.0654 19.5334" stroke="#82C96D" stroke-linecap="round"/>
<path d="M55.1045 18.1264C55.5064 17.7246 55.9746 17.4675 56.4486 17.1515C57.2749 16.6006 58.1466 16.1454 59.0131 15.664C60.4004 14.8933 61.8104 14.1971 63.3342 13.7315C63.9342 13.5481 64.5029 13.28 65.0996 13.0996C65.6189 12.9426 66.1459 12.8419 66.6652 12.6935C67.5297 12.4465 68.5819 12.4012 69.4663 12.5459C69.8405 12.6071 70.2549 12.5829 70.6194 12.674C70.8362 12.7282 71.0703 12.6515 71.286 12.7022C71.7055 12.8009 72.2019 12.7985 72.6323 12.8108C73.1937 12.8268 73.6653 13.1553 74.1696 13.3493C74.3827 13.4312 74.6401 13.5302 74.8428 13.6316" stroke="#82C96D" stroke-linecap="round"/>
<path d="M67.6123 10.6213C67.9342 10.6213 68.3819 10.5371 68.6676 10.68C69.0992 10.8958 69.463 11.1822 69.8011 11.5203C70.082 11.8012 70.5074 12.0966 70.6219 12.4975" stroke="#82C96D" stroke-linecap="round"/>
<path d="M63.7036 11.13C63.9229 11.13 64.1754 11.0932 64.3898 11.1322C64.6162 11.1733 64.841 11.4088 65.013 11.5426C65.2742 11.7457 65.6579 12.0933 65.6579 12.4589" stroke="#82C96D" stroke-linecap="round"/>
<path d="M60.5767 12.0283C60.5869 12.1101 61.1454 12.0674 61.2324 12.0674C61.4996 12.0674 61.5878 12.1796 61.7709 12.3627C61.8903 12.4821 62.0865 12.7428 62.2378 12.81C62.3691 12.8684 62.6032 13.105 62.6482 13.24" stroke="#82C96D" stroke-linecap="round"/>
<path d="M57.9971 13.4748C58.4982 13.4748 58.9971 13.36 59.3651 13.7484C59.5365 13.9294 59.7319 14.1393 59.8732 14.3434C59.932 14.4284 60.0684 14.6864 60.1468 14.7256" stroke="#82C96D" stroke-linecap="round"/>
<path d="M56.1602 14.7646C56.3295 14.7646 56.4989 14.7646 56.6683 14.7646C56.8326 14.7646 56.9979 14.9615 57.1156 15.0578C57.3141 15.2202 57.5643 15.4985 57.6454 15.7418" stroke="#82C96D" stroke-linecap="round"/>
<path d="M57.9578 16.4844C57.9578 16.7215 58.0325 17.1165 57.9013 17.3225C57.8312 17.4327 57.7562 17.5756 57.6929 17.696C57.6377 17.8008 57.5373 17.88 57.4887 17.9892C57.4244 18.1339 57.2552 18.3525 57.137 18.4777C56.9897 18.6337 56.9029 18.888 56.707 18.9859" stroke="#82C96D" stroke-linecap="round"/>
<path d="M60.0687 15.3506C60.0687 15.7487 60.0687 16.1468 60.0687 16.5449C60.0687 17.0442 60.1441 17.622 60.0079 18.1083C59.9565 18.292 59.9141 18.4963 59.8516 18.675C59.8086 18.7978 59.7128 18.9317 59.68 19.0464C59.6605 19.1146 59.4824 19.5234 59.4824 19.3373" stroke="#82C96D" stroke-linecap="round"/>
<path d="M62.2964 14.1006C62.2964 14.4279 62.4233 14.7606 62.5114 15.0777C62.6178 15.4607 62.6873 15.8921 62.6873 16.2894C62.6873 16.719 62.6892 17.1243 62.6048 17.5466C62.5452 17.8446 62.4129 18.0494 62.2573 18.2828" stroke="#82C96D" stroke-linecap="round"/>
<path d="M64.876 13.2012C64.876 13.6947 64.8216 14.2204 64.8955 14.7081C64.9359 14.9747 64.9321 15.258 64.952 15.5268C64.9695 15.763 64.9933 16.0161 64.9933 16.252C64.9933 16.6682 64.9933 17.0844 64.9933 17.5006C64.9933 17.5855 65.0213 17.718 64.9629 17.7829C64.915 17.8361 64.8584 17.9442 64.8369 18.0087" stroke="#82C96D" stroke-linecap="round"/>
<path d="M68.824 12.459C68.824 12.7615 68.824 13.0641 68.824 13.3666C68.824 13.6894 68.8275 14.0124 68.824 14.3351C68.8207 14.6367 68.6526 14.9658 68.5286 15.2362C68.433 15.4448 68.3464 15.6718 68.216 15.8616C68.1606 15.9422 68.0659 16.1263 67.9858 16.1721C67.8293 16.2616 67.7567 16.5299 67.6123 16.6021" stroke="#82C96D" stroke-linecap="round"/>
<path d="M72.2632 13.1621C72.2632 13.3768 72.2857 13.5933 72.2155 13.7962C72.1456 13.9981 72.0005 14.1784 71.9527 14.3933C71.9126 14.5739 71.8307 14.7314 71.7551 14.9014C71.6656 15.1029 71.4446 15.2684 71.3643 15.4291" stroke="#82C96D" stroke-linecap="round"/>
</svg>
