<svg width="31" height="30" viewBox="0 0 31 30" fill="none" xmlns="http://www.w3.org/2000/svg">
<path fill-rule="evenodd" clip-rule="evenodd" d="M20.5257 22.9834C18.4575 24.2041 16.005 24.9108 13.3752 24.9108C5.9883 24.9108 0 19.3344 0 12.4554C0 5.57648 5.9883 0 13.3752 0C20.7622 0 26.7505 5.57648 26.7505 12.4554C26.7505 15.7278 25.3954 18.7054 23.1792 20.9281C23.2738 20.9914 23.3631 21.0641 23.4457 21.1464L29.523 27.2009C30.1988 27.8741 30.1634 28.9276 29.4438 29.554C28.7243 30.1803 27.5931 30.1422 26.9173 29.469L20.84 23.4145C20.7083 23.2832 20.6036 23.1376 20.5257 22.9834ZM24.0752 12.4555C24.0752 17.9586 19.2845 22.4198 13.375 22.4198C7.46542 22.4198 2.67478 17.9586 2.67478 12.4555C2.67478 6.95231 7.46542 2.49112 13.375 2.49112C19.2845 2.49112 24.0752 6.95231 24.0752 12.4555Z" fill="#82C96D"/>
</svg>
